<svg xmlns="http://www.w3.org/2000/svg" width="120.656" height="137" viewBox="0 0 120.656 137">
  <g id="Group_7" data-name="Group 7" transform="translate(-32 -48.505)">
    <path id="Path_34" data-name="Path 34" d="M153.443,119.268a39.042,39.042,0,0,1-8.667-.722c-2.458-.518-5.336-1.725-6.5-2.889-3.079-3.079-.722-17.334-.722-17.334l6.5-18.056a21.7,21.7,0,0,1,10.111-5.778c4.195-.99,10.125.07,13.722,1.444,8.669,3.311,10.834,17.334,10.834,17.334l1.444,18.778s.381,3.52-.722,4.333a18.412,18.412,0,0,1-5.056,2.167,28.383,28.383,0,0,1-7.222.722Z" transform="translate(-58.608 -13.93)" fill="#11463c"/>
    <path id="Path_23" data-name="Path 23" d="M156.688,119.113s3.892,10.284,13.722,10.834,13-10.834,13-10.834l.722-7.222-1.444-5.778s-6.64.988-10.111-.722-3.611-7.222-3.611-7.222,1.408,6.6-1.444,7.945-8.667,1.444-8.667,1.444l-.722,6.5Z" transform="translate(-69.798 -27.498)" fill="#ffc4ac"/>
    <path id="Path_24" data-name="Path 24" d="M165.449,141.13a45.987,45.987,0,0,1,10.111-2.167c5.113-.541,8.014.481,8.667,0s0-.722,0-.722a26.268,26.268,0,0,0-10.111-1.444,22.591,22.591,0,0,0-8.667,2.889S163.215,141.817,165.449,141.13Z" transform="translate(-73.503 -49.515)" fill="#f2b49a"/>
    <path id="Path_22" data-name="Path 22" d="M185.836,127.141c.769.722,2.717,6.707,2.889,7.222s-1.136.069-2.167,0-2.1.343-2.167-.722a20.521,20.521,0,0,1,.722-4.333C185.469,127.58,185.067,126.419,185.836,127.141Z" transform="translate(-85.223 -43.471)" fill="#d39d87"/>
    <g id="Group_1" data-name="Group 1" transform="translate(97.723 93.058)">
      <path id="Path_21" data-name="Path 21" d="M181.292,151.781l7.945-.722s-1.738-2.227-3.611-2.167S181.292,151.781,181.292,151.781Z" transform="translate(-181.292 -148.891)" fill="#3e2d4a"/>
      <path id="Path_20" data-name="Path 20" d="M182.362,154.432s2.142.077,3.611,0,3.611,0,3.611,0a11.453,11.453,0,0,0-3.611-.722A19.467,19.467,0,0,0,182.362,154.432Z" transform="translate(-181.64 -151.542)" fill="#c05c5d"/>
    </g>
    <path id="Path_18" data-name="Path 18" d="M174.4,166.161V156.049a6.75,6.75,0,0,0,4.333,4.333c3.36.954,8.667-.722,8.667-.722l.722,7.945a15.268,15.268,0,0,1-7.222,1.444A14.4,14.4,0,0,1,174.4,166.161Z" transform="translate(-79.57 -59.379)" fill="#f2b49a"/>
    <path id="Path_17" data-name="Path 17" d="M97.761,97.252s10.08-6.739,20.223-10.111c5.548-1.845,11.537-3.437,15.889-3.611a9.462,9.462,0,0,1,5.778,1.444c0,.3-.722,0-.722,0a23.99,23.99,0,0,1-3.611.722,22.8,22.8,0,0,1-3.611,0s7.1,1.8,7.222,2.167c.028.083.238.728-.722.722-.6,0-1.932-.779-2.889-.722a31.227,31.227,0,0,0-3.611.722s3.091.785,5.056,1.444,2.167,1.444,2.167,1.444c-.1.235-.513.148-4.333,0-.913-.035-2.081.079-3.611,0l5.056,1.444s2.558.919,2.167,1.444-5.056,0-5.056,0l-5.778.722a40.767,40.767,0,0,0-7.945,5.056,125.343,125.343,0,0,0-9.389,8.667Z" transform="translate(-36.872 -19.36)" fill="#ffc4ac"/>
    <path id="Path_19" data-name="Path 19" d="M176.07,168.38a27.925,27.925,0,0,0,6.5.722,33.266,33.266,0,0,0,5.778-.722v4.333s-5.539.662-8.667,0-3.611-2.889-3.611-2.889Z" transform="translate(-80.513 -66.654)" fill="#eba487"/>
    <path id="Path_1" data-name="Path 1" d="M78.945,147.927h52s6.6.846,10.834,5.056,8.143,17.151,9.389,23.834a113.5,113.5,0,0,1,1.444,15.167s.622,7.1-2.889,11.556-10.834,5.778-10.834,5.778l-.722,13H81.834s-11.316-1.574-15.167-12.278,0-31.056,0-31.056-15.236-7.851-23.834-15.889S32,147.2,32,147.2s.511-11.434,7.945-19.5c3.2-3.469,7.413-7.967,11.556-10.111A26.333,26.333,0,0,1,61.612,114.7a41.437,41.437,0,0,1,7.945,5.056,12.212,12.212,0,0,1,3.611,5.778s1.468,1.047,0,4.333c-.724,1.62-3.136,3.207-4.333,5.056a11.37,11.37,0,0,0-1.444,3.611s.041,1.3,2.889,3.611c.869.705,2.323,1.3,3.611,2.167C76.453,146.036,78.945,147.927,78.945,147.927Z" transform="translate(0 -36.812)" fill="#15a98e"/>
    <path id="Path_3" data-name="Path 3" d="M169.385,283.113A80.066,80.066,0,0,1,173,293.946c1.419,5.719,1.765,6.038,2.167,9.389s-2.572,5.61-5.778,5.778-3.759-2.163-7.222-2.889-4.132.328-6.5-.722a5.051,5.051,0,0,1-2.889-2.889,21.52,21.52,0,0,1,.722-9.389,102.118,102.118,0,0,1,5.056-13l5.056-3.611h3.611Z" transform="translate(-67.328 -127.219)" fill="#fff"/>
    <path id="Path_4" data-name="Path 4" d="M189.2,183.495s-10.24,8.729-18.056,12.278-13,2.167-13,2.167l-.722,13a6.5,6.5,0,0,1,.722,2.167,14.751,14.751,0,0,1,0,2.889l-12.278,18.056h-3.611s-4.385-.059-5.056-1.444-.722-7.945-.722-7.945-.165-11.846.722-20.945,2.167-15.889,2.167-15.889-3.3-2.125-2.889-4.333,5.056-4.333,5.056-4.333a13.5,13.5,0,0,1,7.945-2.167c4.229.4,8.667,3.611,8.667,3.611a46.235,46.235,0,0,0,7.945-.722,63.367,63.367,0,0,0,7.945-2.167,11.987,11.987,0,0,1,6.5.722A41.183,41.183,0,0,1,189.2,183.495Z" transform="translate(-58.257 -71.657)" fill="#267466"/>
    <path id="Path_8" data-name="Path 8" d="M257.415,259.825a32.937,32.937,0,0,0,5.056,1.444c2.485.456,5.056.722,5.056.722" transform="translate(-126.107 -118.015)" fill="none" stroke="#3d9282" stroke-linecap="round" stroke-width="2"/>
    <path id="Path_9" data-name="Path 9" d="M236.185,261.222a27,27,0,0,0,2.889.722,9.1,9.1,0,0,0,2.889,0" transform="translate(-114.267 -118.69)" fill="none" stroke="#3d9282" stroke-linecap="round" stroke-width="2"/>
    <path id="Path_10" data-name="Path 10" d="M233.694,261.383s-2.271,6.428-3.611,11.556-2.167,9.389-2.167,9.389" transform="translate(-109.609 -118.851)" fill="none" stroke="#3d9282" stroke-linecap="round" stroke-width="2"/>
    <path id="Path_11" data-name="Path 11" d="M221.269,302.385a16.374,16.374,0,0,1,.722,2.167c.268,1.095-.082,1.586.722,2.167a23.1,23.1,0,0,0,8.667,5.778,66.413,66.413,0,0,0,13,2.889" transform="translate(-105.851 -141.797)" fill="none" stroke="#3d9282" stroke-width="2"/>
    <path id="Path_12" data-name="Path 12" d="M124.3,350.067s14.007.193,25.278,0,12.727-.409,19.5-.722,15.889,0,15.889,0" transform="translate(-51.494 -167.812)" fill="none" stroke="#3d9282" stroke-linecap="round" stroke-width="2"/>
    <path id="Path_13" data-name="Path 13" d="M117.113,195.661s-.62,1.91-1.444,4.333a45.2,45.2,0,0,1-2.167,5.056,38.229,38.229,0,0,0-2.167,6.5c-.851,3.635-1.444,8.667-1.444,8.667" transform="translate(-43.584 -82.018)" fill="none" stroke="#3d9282" stroke-width="2"/>
    <path id="Path_14" data-name="Path 14" d="M99.617,118.632a11.52,11.52,0,0,0,2.167,3.611,9.327,9.327,0,0,0,2.889,2.167c1.1.671,1.671.2,2.889,1.444a13.329,13.329,0,0,1,2.167,3.611" transform="translate(-37.644 -38.934)" fill="none" stroke="#3d9282" stroke-linecap="round" stroke-width="2"/>
    <path id="Path_15" data-name="Path 15" d="M76.766,159.634a27.252,27.252,0,0,0,5.056,2.167c2.614.771,3.231.149,5.778.722a21.832,21.832,0,0,1,4.333,1.444,26.98,26.98,0,0,1-7.222,1.444,35.483,35.483,0,0,1-7.945-.722" transform="translate(-24.905 -61.88)" fill="none" stroke="#3d9282" stroke-linecap="round" stroke-width="2"/>
    <path id="Path_16" data-name="Path 16" d="M229.394,327.832a1.357,1.357,0,0,1,1.444,0A16.321,16.321,0,0,0,233,329.276c1.063.463,1.109-.417,2.167,0s.773,1.185,1.444,1.444a1.65,1.65,0,0,0,1.444,0,1.213,1.213,0,0,0,.722-.722" transform="translate(-110.364 -155.688)" fill="none" stroke="#267466" stroke-linecap="round" stroke-width="1"/>
    <g id="Group_3" data-name="Group 3" transform="translate(90.501 78.226)">
      <path id="Path_7" data-name="Path 7" d="M249.066,212.137s.326,4.6.722,7.222,1.9,3.078,2.167,5.778a16.137,16.137,0,0,1,0,2.889c-.242,2.725-.726,6.031.722,6.5a45.052,45.052,0,0,1,7.222,2.167,17.643,17.643,0,0,1,5.056,3.611" transform="translate(-211.871 -169.498)" fill="none" stroke="#3d9282" stroke-linecap="round" stroke-width="2"/>
      <circle id="Ellipse_1" data-name="Ellipse 1" cx="1" cy="1" r="1" transform="translate(2.499 6.279)" fill="#3e2d4a"/>
      <circle id="Ellipse_2" data-name="Ellipse 2" cx="1" cy="1" r="1" transform="translate(15.499 5.279)" fill="#3e2d4a"/>
      <path id="Path_25" data-name="Path 25" d="M164.636,121.435s1.48-2,2.889-2.167,2.889,1.444,2.889,1.444" transform="translate(-164.636 -117.436)" fill="#3e2d4a"/>
      <path id="Path_26" data-name="Path 26" d="M0,2.074S1.2.175,2.612.012,5.637,1.421,5.637,1.421" transform="translate(15.812 0) rotate(16)" fill="#3e2d4a"/>
    </g>
    <g id="Group_2" data-name="Group 2" transform="translate(87.251 80.459)">
      <g id="Ellipse_3" data-name="Ellipse 3" transform="translate(1.749 2.046)" fill="none" stroke="#fff" stroke-width="1">
        <circle cx="5" cy="5" r="5" stroke="none"/>
        <circle cx="5" cy="5" r="4.5" fill="none"/>
      </g>
      <g id="Ellipse_4" data-name="Ellipse 4" transform="translate(14.749 0.046)" fill="none" stroke="#fff" stroke-width="1">
        <circle cx="5" cy="5" r="5" stroke="none"/>
        <circle cx="5" cy="5" r="4.5" fill="none"/>
      </g>
      <path id="Path_27" data-name="Path 27" d="M157.37,131.452l2.167.722" transform="translate(-157.37 -126.436)" fill="none" stroke="#fff" stroke-width="1"/>
      <path id="Path_28" data-name="Path 28" d="M184.894,135.014h2.889" transform="translate(-172.616 -128.553)" fill="none" stroke="#fff" stroke-width="1"/>
      <path id="Path_29" data-name="Path 29" d="M213.162,129l2.889-.722" transform="translate(-188.606 -124.707)" fill="none" stroke="#fff" stroke-width="1"/>
    </g>
    <g id="Group_4" data-name="Group 4" transform="translate(113.443 82.892)">
      <path id="Path_30" data-name="Path 30" d="M215.671,134.7s1.647,1.074,2.889,0A7.148,7.148,0,0,0,220,131.816c.73-2.206,1.054-5.606,0-5.778-1.684-.275-1.892.516-2.889,1.444s-1.062,2.942-1.444,5.056S215.671,134.7,215.671,134.7Z" transform="translate(-215.501 -125.982)" fill="#df9f85"/>
      <path id="Path_31" data-name="Path 31" d="M218.71,136.008a21.22,21.22,0,0,1,.722-2.889,5.052,5.052,0,0,1,1.444-2.167" transform="translate(-217.457 -129.092)" fill="none" stroke="#bf7b5f" stroke-linecap="round" stroke-width="1"/>
    </g>
    <g id="Group_6" data-name="Group 6" transform="translate(82.604 82.806)">
      <path id="Path_32" data-name="Path 32" d="M219.918,135.282s-.925.352-2.167-.722a6.678,6.678,0,0,1-2.167-2.889c-.73-2.206-1.054-4.884,0-5.056,1.684-.275,1.892-.206,2.889.722a9.841,9.841,0,0,1,2.167,5.056C221.022,134.507,219.918,135.282,219.918,135.282Z" transform="translate(-214.91 -126.474)" fill="#df9f85"/>
      <g id="Group_5" data-name="Group 5" transform="translate(2.48 1.225)">
        <path id="Path_33" data-name="Path 33" d="M220.692,136.341a5.23,5.23,0,0,0,0-2.889,15.4,15.4,0,0,0-1.444-2.889" transform="translate(-219.248 -130.563)" fill="none" stroke="#bf7b5f" stroke-linecap="round" stroke-width="1"/>
      </g>
    </g>
    <ellipse id="Ellipse_5" data-name="Ellipse 5" cx="5.5" cy="6" rx="5.5" ry="6" transform="translate(93 48.505)" fill="#11463c"/>
    <path id="Path_35" data-name="Path 35" d="M199.742,76.023a22.178,22.178,0,0,1,6.5,2.167,19.35,19.35,0,0,1,5.778,5.056c3.674,4.623,1.444,12.278,1.444,12.278" transform="translate(-93.713 -15.104)" fill="none" stroke="#11463c" stroke-width="1"/>
    <path id="Path_36" data-name="Path 36" d="M136.568,131.452s-3.611,5.1-3.611,9.389,3.611,7.222,3.611,7.222" transform="translate(-56.539 -45.976)" fill="none" stroke="#11463c" stroke-linecap="round" stroke-width="1"/>
    <path id="Path_37" data-name="Path 37" d="M169.218,51.64s-2.268,3.8-2.167,6.5,3.611,3.611,3.611,3.611" transform="translate(-75.466 -1.554)" fill="none" stroke="#11463c" stroke-linecap="round" stroke-width="1"/>
    <path id="Path_38" data-name="Path 38" d="M191.609,53.257s2.805,1.981,2.889,4.333-2.889,5.056-2.889,5.056" transform="translate(-89.191 -2.448)" fill="none" stroke="#11463c" stroke-linecap="round" stroke-width="1"/>
    <path id="Path_39" data-name="Path 39" d="M232.378,133.629a41.494,41.494,0,0,1,2.167,7.945c.261,2.893-1.444,3.611-1.444,3.611" transform="translate(-111.904 -47.431)" fill="none" stroke="#11463c" stroke-width="1"/>
    <path id="Path_40" data-name="Path 40" d="M174.863,135.328a2.472,2.472,0,0,1-.722.722,2.472,2.472,0,0,0-.722.722" transform="translate(-78.945 -48.408)" fill="none" stroke="#d39d87" stroke-linecap="round" stroke-width="1"/>
    <path id="Path_41" data-name="Path 41" d="M198.418,134.829s.164-.247.722,0,1.444.722,1.444.722" transform="translate(-93.111 -47.908)" fill="none" stroke="#d39d87" stroke-linecap="round" stroke-width="1"/>
    <path id="Path_42" data-name="Path 42" d="M186.507,159.863a1.806,1.806,0,0,0,2.889,0" transform="translate(-86.256 -62.109)" fill="none" stroke="#d39d87" stroke-linecap="round" stroke-width="1"/>
    <path id="Path_2" data-name="Path 2" d="M191.32,267.9a33.61,33.61,0,0,1-1.444,7.945,10.211,10.211,0,0,1-2.889,4.333s-6.4-3.387-11.556-3.611c-2.6-.113-4.788,1.472-6.5,2.167-1.438.582-2.377.953-2.889.722s.195-1.278.722-2.167a4.767,4.767,0,0,1,1.444-1.444,14.406,14.406,0,0,0-2.889.722c-1.472.547-2.443,1.793-2.889,1.444s.463-1.473,1.444-2.889a16.436,16.436,0,0,1,2.889-2.889l-5.056,2.889s-.519.168-.722,0,0-.722,0-.722,3.037-7.482,10.834-9.389S191.32,267.9,191.32,267.9Z" transform="translate(-71.929 -120.676)" fill="#ffc4ac"/>
    <path id="Path_43" data-name="Path 43" d="M229.189,327.2a1.357,1.357,0,0,1,1.444,0c.814.463,1.1,1.7,2.167,2.167s1.109-.417,2.167,0,1.5,1.185,2.167,1.444.173-.539.722-.722a3.531,3.531,0,0,1,1.444,0" transform="translate(-101.492 -222.946)" fill="none" stroke="#72c6b7" stroke-linecap="round" stroke-width="1"/>
    <path id="Path_44" data-name="Path 44" d="M0,.206a1.66,1.66,0,0,1,1.586,0c.814.463.605,1.388,1.668,1.851s1.525-.417,2.583,0,.976,1.408,1.647,1.668.488-.447,1.037-.63a2.95,2.95,0,0,1,1.159-.1" transform="matrix(0.951, 0.309, -0.309, 0.951, 45.389, 134.495)" fill="none" stroke="#eec459" stroke-linecap="round" stroke-width="1"/>
    <path id="Path_45" data-name="Path 45" d="M0,.206a1.66,1.66,0,0,1,1.586,0c.814.463.605,1.388,1.668,1.851s1.525-.417,2.583,0,.976,1.408,1.647,1.668.488-.447,1.037-.63a2.95,2.95,0,0,1,1.159-.1" transform="translate(131.718 64.928) rotate(17)" fill="none" stroke="#72c6b7" stroke-linecap="round" stroke-width="1"/>
    <path id="Path_46" data-name="Path 46" d="M0,.206a1.66,1.66,0,0,1,1.586,0c.814.463.605,1.388,1.668,1.851s1.525-.417,2.583,0,.976,1.408,1.647,1.668.488-.447,1.037-.63a2.95,2.95,0,0,1,1.159-.1" transform="translate(132.6 68.894) rotate(17)" fill="none" stroke="#267466" stroke-linecap="round" stroke-width="1"/>
    <path id="Path_47" data-name="Path 47" d="M0,.206a1.66,1.66,0,0,1,1.586,0c.814.463.605,1.388,1.668,1.851s1.525-.417,2.583,0,.976,1.408,1.647,1.668.488-.447,1.037-.63a2.95,2.95,0,0,1,1.159-.1" transform="translate(55.356 69.625) rotate(-54)" fill="none" stroke="#72c6b7" stroke-linecap="round" stroke-width="1"/>
    <path id="Path_48" data-name="Path 48" d="M0,.206a1.66,1.66,0,0,1,1.586,0c.814.463.605,1.388,1.668,1.851s1.525-.417,2.583,0,.976,1.408,1.647,1.668.488-.447,1.037-.63a2.95,2.95,0,0,1,1.159-.1" transform="translate(59.394 70.083) rotate(-54)" fill="none" stroke="#267466" stroke-linecap="round" stroke-width="1"/>
  </g>
</svg>
